Coordinates
version=1
nRows=10
nColumns=22
inDegrees=yes

Units are S.I. units (second, meters, Newtons, ...)
If the header above contains a line with 'inDegrees', this indicates whether rotational values are in degrees (yes) or radians (no).

endheader
time	pelvis_tilt	pelvis_list	pelvis_rotation	pelvis_tx	pelvis_ty	pelvis_tz	hip_flexion_r	hip_adduction_r	hip_rotation_r	knee_angle_r	ankle_angle_r	subtalar_angle_r	hip_flexion_l	hip_adduction_l	hip_rotation_l	knee_angle_l	ankle_angle_l	subtalar_angle_l	lumbar_extension	lumbar_bending	lumbar_rotation
      2.56000000	     -6.34182946	     -1.45604681	    -53.23141361	      0.06222941	      0.88624642	     -0.64251888	     35.93786510	      2.27064459	    -11.22725927	    -60.45754378	      7.15230288	     -1.42443988	     -0.32460544	    -11.38343274	    -17.64205451	    -16.50724631	     18.23601948	      7.21112029	     -4.96629004	      6.20076090	     -0.02172365
      2.57000000	     -6.31998393	     -1.33177249	    -53.91459527	      0.06445931	      0.88540091	     -0.63887629	     35.73518476	      1.99051777	    -11.30735825	    -57.91688151	      7.01186843	     -1.58209806	     -0.86475451	    -11.19488907	    -18.36512084	    -16.30716371	     18.49166508	      7.17073289	     -4.98577930	      6.21782415	     -0.01078914
      2.58000000	     -6.27032205	     -1.21339152	    -54.55995264	      0.06674925	      0.88451366	     -0.63514638	     35.43724375	      1.67816946	    -11.42525936	    -55.23686260	      6.80028242	     -1.71678616	     -1.44409710	    -10.97205760	    -19.05438473	    -16.06019353	     18.73502597	      7.14428456	     -5.02102710	      6.22765123	     -0.00389771
      2.59000000	     -6.20610505	     -1.08034413	    -55.17150636	      0.06907290	      0.88353684	     -0.63130734	     35.07962992	      1.34181239	    -11.57732453	    -52.43933203	      6.52411748	     -1.81659385	     -2.03030298	    -10.71755065	    -19.71136736	    -15.77966674	     18.97921684	      7.13879421	     -5.04252159	      6.22502922	     -0.00488439
      2.60000000	     -6.13664324	     -0.91847966	    -55.76695980	      0.07133658	      0.88244125	     -0.62735901	     34.69284530	      1.01615373	    -11.71053630	    -49.53268115	      6.15204315	     -1.84525489	     -2.57743084	    -10.44646280	    -20.36713891	    -15.52635426	     19.21457791	      7.13174441	     -5.03909504	      6.20282838	     -0.01495257
      2.61000000	     -6.05811733	     -0.74854917	    -56.33199869	      0.07362390	      0.88125096	     -0.62327240	     34.25800439	      0.67918226	    -11.89499247	    -46.54590512	      5.71907949	     -1.83401942	     -3.13233585	    -10.15863047	    -20.99782986	    -15.24720744	     19.45049074	      7.15169816	     -5.02533886	      6.17587255	     -0.02523028
      2.62000000	     -5.97492386	     -0.56179500	    -56.86968888	      0.07590726	      0.87994787	     -0.61904762	     33.79720769	      0.34315536	    -12.11212869	    -43.50196390	      5.23728361	     -1.78635703	     -3.67136298	     -9.85753429	    -21.60096237	    -14.96739944	     19.69435133	      7.20140337	     -4.99068225	      6.14135768	     -0.04339211
      2.63000000	     -5.89094587	     -0.35877053	    -57.38362753	      0.07817919	      0.87852822	     -0.61467752	     33.32442869	      0.01687719	    -12.35866290	    -40.42797209	      4.71947531	     -1.71126497	     -4.18723948	     -9.55181883	    -22.19150444	    -14.70034960	     19.94264833	      7.26951962	     -4.93359138	      6.10476033	     -0.06835243
      2.64000000	     -5.80577649	     -0.14868399	    -57.87222832	      0.08040930	      0.87700397	     -0.61016570	     32.84020216	     -0.28518044	    -12.61850476	    -37.34413597	      4.20245644	     -1.61497352	     -4.68377708	     -9.24984333	    -22.75062018	    -14.45246718	     20.20711777	      7.36473382	     -4.86640174	      6.06648087	     -0.10350866
      2.65000000	     -5.72370101	      0.07757669	    -58.33621255	      0.08258957	      0.87536097	     -0.60551322	     32.36920909	     -0.55967569	    -12.87048067	    -34.28272495	      3.71431133	     -1.50685382	     -5.14650823	     -8.95370604	    -23.27976666	    -14.23213365	     20.48508500	      7.48768528	     -4.77745309	      6.02652039	     -0.15018159
